<svg xmlns="http://www.w3.org/2000/svg" viewBox="0 0 414.467 178.72">
  <path d="M1748.92 95.332v20.18h88.07v-20.18h-33.48V1.199h-20.97v94.133h-33.62M1927.9 1.2h-73.3V115.46h73.3V95.469h-52.4v-26.7h42.61V48.84h-42.61V21.16h52.4V1.2M1962.64 58.27c0-5.07.99-9.899 3.01-14.52 2.01-4.531 4.67-8.46 8.1-11.86 3.44-3.37 7.41-5.992 12.05-8 4.43-1.96 9.34-2.94 14.49-2.94 3.94 0 7.7.62 11.26 1.859 3.61 1.082 6.83 2.742 9.88 4.882 1.16.73 2.38 1.297 3.76 1.739 1.35.32 2.79.59 4.25.59 2.4 0 4.44-.38 6.1-1.13 1.67-.718 3.26-1.831 4.7-3.269l4.84-4.789c-2.9-3.23-6.22-6.14-9.61-8.66-3.54-2.531-7.08-4.742-10.92-6.531-3.83-1.782-7.74-3.211-11.84-4.121-4.07-.98-8.1-1.508-12.42-1.508-8.02 0-15.71 1.578-22.73 4.66-7.16 3.008-13.27 7.16-18.64 12.488-5.33 5.25-9.51 11.36-12.57 18.52-3.08 6.992-4.57 14.59-4.57 22.59 0 5.41.71 10.62 2.1 15.55a54.07 54.07 0 0 0 5.85 13.93c2.49 4.309 5.58 8.23 9.19 11.809 3.49 3.55 7.5 6.652 11.85 9.16 4.29 2.531 8.95 4.531 13.9 5.832 5.02 1.371 10.29 2.14 15.62 2.14 4.32 0 8.35-.582 12.42-1.562 4.1-.899 8.01-2.207 11.84-4.09 3.84-1.719 7.38-3.949 10.92-6.5 3.39-2.527 6.71-5.398 9.61-8.687l-4.84-4.864a18.505 18.505 0 0 0-4.77-3.258c-1.73-.832-3.73-1.25-6.03-1.25-2.9 0-5.63.84-8.01 2.508a44.029 44.029 0 0 1-9.96 4.953c-3.48 1.18-7.3 1.739-11.18 1.739-5.15 0-10.06-.95-14.49-2.98-4.64-1.99-8.61-4.65-12.05-8.079-3.43-3.36-6.09-7.281-8.1-11.75-2.02-4.512-3.01-9.332-3.01-14.602M2166.12 1.2h-20.96v47.37h-56.17V1.2h-20.92V115.46h20.92V68.582h56.17v46.879h20.96V1.199M2261.33 1.2h-5.97v33.23h-.31L2241.74 1.2h-3.69l-13.11 33.23h-.06V1.2h-6.13v39.312h9.78l11.39-27.793 11.68 27.793h9.73V1.199M2211.69 34.43h-12.98V1.2h-5.94v33.23h-12.89v6.082h31.81V34.43M986.383 35.82s10.281 23.7 15.357 35.47c5.21 11.71 10.3 23.5 15.57 35.382 1.15 2.687 3.01 4.828 5.42 6.437 2.53 1.571 5.22 2.352 8.2 2.352h13.01L994.082 1.199h-18.937l-49.872 114.262h12.969c1.414 0 2.797-.242 4.231-.68 1.379-.472 2.695-1.062 3.906-1.812a11.693 11.693 0 0 0 3.285-2.84c.941-1.039 1.699-2.168 2.254-3.457l30.879-70.64 1.773-4.25 1.813 4.038M1082.4 1.2h-20.98V115.46h20.98V1.199M1317.21 62.398V14.422c-2.85-2.953-6-5.25-9.27-7.07-3.39-1.852-6.89-3.41-10.57-4.5-3.69-1.051-7.5-1.774-11.42-2.223-3.95-.36-7.99-.617-12.03-.617-8.02 0-15.67 1.578-22.72 4.66-7.05 3.008-13.28 7.16-18.57 12.488-5.33 5.25-9.5 11.36-12.6 18.52-2.99 6.992-4.47 14.59-4.47 22.59 0 5.41.67 10.62 1.98 15.53 1.45 5.04 3.35 9.63 6.03 13.95 2.44 4.309 5.49 8.23 9.06 11.809 3.55 3.55 7.58 6.601 11.84 9.16 4.33 2.531 9.05 4.531 13.95 5.832 4.94 1.371 10.17 2.14 15.5 2.14 4.26 0 8.45-.582 12.52-1.562 4.14-.899 8.05-2.207 11.79-4.09 3.8-1.719 7.45-3.949 10.89-6.5 3.46-2.527 6.68-5.398 9.59-8.687l-4.76-4.864c-1.46-1.457-3.09-2.668-4.78-3.379-1.76-.777-3.77-1.128-5.99-1.128-2.95 0-5.69.84-8.12 2.507-3 2.16-6.33 3.711-9.81 4.953-3.57 1.18-7.37 1.739-11.33 1.739-5.09 0-9.92-.95-14.47-2.98-4.62-1.99-8.52-4.65-11.98-8.079-3.37-3.36-6.16-7.281-8.12-11.75-1.92-4.512-2.93-9.332-2.93-14.601 0-5.122 1.01-10.04 3.12-14.668 2.06-4.532 4.84-8.512 8.3-11.82a39.636 39.636 0 0 1 12.23-7.891c4.72-2.012 9.57-2.942 14.62-2.942 2.53.07 5.1.282 7.63.621 2.16.309 4.52.89 6.99 1.489 2.46.832 4.76 1.75 6.85 2.98v16.152c-2.21 0-4.39.11-6.51.11-2.23 0-4.13.37-5.84 1.23-1.65.77-2.94 2.207-3.92 4.028-1.04 1.851-1.53 4.64-1.53 8.43v6.41h38.85M1371.95 1.2h-21.01V115.46h21.01V1.199M1427.25 86.648V1.2h-20.79v114.262h18.45c2.52 0 4.8-.422 6.66-1.152 2.03-.739 3.52-1.918 4.66-3.418 7.93-11.332 50.69-71.82 50.69-71.82v76.39h20.95V1.199h-19.35l-61.27 85.45M1563.38 1.2h-20.99V115.46h20.99V1.199M1649.65 115.461h-18.88L1580.91 1.199h12.97c1.43 0 2.93.23 4.29.64 1.38.47 2.73 1.013 3.97 1.802 1.21.84 2.25 1.648 3.24 2.757.93 1.032 1.69 2.23 2.2 3.473l6.73 15.45 12.1 27.827h.03l13.82 31.922 16.76-38.71h-9.59c-7.08 0-13.49-4.258-16.31-10.801l-4.47-10.239h39.53l6.85-15.449c1.18-2.7 2.98-4.84 5.45-6.422 2.42-1.527 5.18-2.25 8.14-2.25h12.97l-49.94 114.262M1160.41 63.32c2.08 0 4.05.36 5.72 1.301 1.99.79 3.5 1.969 4.85 3.34 1.43 1.46 2.5 3.2 3.24 5.05.79 1.848 1.17 3.84 1.17 5.84 0 2.079-.38 4.07-1.17 5.84a14.461 14.461 0 0 1-3.24 5.09c-1.35 1.457-2.86 2.578-4.85 3.348-1.67.902-3.64 1.34-5.72 1.34h-22.61V63.32ZM1137.8 1.2h-20.89V115.46h42.92c5.59 0 10.56-1.031 14.99-3.07 4.5-2.172 8.36-4.879 11.55-8.321 3.16-3.441 5.65-7.308 7.44-11.64 1.71-4.43 2.61-8.899 2.61-13.48 0-3.348-.47-6.65-1.33-9.868a36.073 36.073 0 0 0-4.01-8.98c-1.79-2.832-3.96-5.391-6.53-7.832-2.5-2.301-5.45-4.38-8.69-5.91 5.65-7.7 11.13-15.18 16.57-22.641 5.52-7.438 11.23-14.918 16.71-22.52h-16.2c-1.14 0-2.5.23-3.92.692-1.48.449-3.05 1.25-4.71 2.289-1.61 1.058-3.32 2.48-5.06 4.058a41.596 41.596 0 0 0-5.03 5.973L1153.4 42.3h-15.6V1.199" transform="matrix(.13333 0 0 -.13333 0 178.72)"/>
  <path d="M56.344 447.027c14.984 0 24.699 6.387 24.699 21.934v25.812h29.699v-31.64c0-27.481-21.922-43.301-56.344-43.301C21.094 419.832 0 435.652 0 463.133v118.789c0 27.48 21.645 43.301 56.344 43.301 33.304 0 54.398-15.821 54.398-43.301v-31.641H81.043v25.821c0 14.98-9.715 21.921-24.7 21.921-16.933 0-24.98-6.941-24.98-21.921V468.961c0-15.547 8.047-21.934 24.98-21.934M233.395 422.605h-98.817v199.844h98.817v-26.926h-67.45v-56.621h51.907V511.98h-51.907v-62.453h67.45v-26.922M253.07 422.605v199.844h25.539l62.172-124.074 6.11-14.98-.559 15.539v123.515h28.313V422.605h-25.813l-61.621 123.516-6.66 16.934.558-15.821V422.605H253.07M429.566 422.605v172.918h-40.8v26.926h112.687v-26.926h-40.519V422.605h-31.368M614.395 422.605h-98.813v199.844h98.813v-26.926h-67.446v-56.621h51.903V511.98h-51.903v-62.453h67.446v-26.922M665.438 595.523v-71.882h16.378c17.207 0 26.368 8.32 26.368 27.754v14.988c0 19.98-9.161 29.14-26.094 29.14zM634.07 422.605v199.844h46.91c42.465 0 58.567-20.265 58.567-54.406v-21.367c0-23.035-8.606-39.141-29.977-46.074l41.637-77.997h-34.422l-37.191 74.11h-14.156v-74.11H634.07M800.852 422.605v199.844h98.812v-26.926h-67.445v-64.949h51.902v-26.926h-51.902v-81.043h-31.367M942.938 572.215v-99.367c0-18.321 8.882-25.821 27.753-25.821 18.879 0 27.762 7.5 27.762 25.821v99.367c0 18.308-8.883 25.808-27.762 25.808-18.871 0-27.753-7.5-27.753-25.808zm87.152 6.933V465.906c0-29.14-22.48-46.074-59.399-46.074-36.914 0-59.113 16.934-59.113 46.074v113.242c0 29.141 22.199 46.075 59.113 46.075 36.919 0 59.399-16.934 59.399-46.075M1087.79 595.523v-71.882h16.38c17.2 0 26.36 8.32 26.36 27.754v14.988c0 19.98-9.16 29.14-26.09 29.14zm-31.37-172.918v199.844h46.91c42.47 0 58.56-20.265 58.56-54.406v-21.367c0-23.035-8.6-39.141-29.97-46.074l41.63-77.997h-34.41l-37.2 74.11h-14.15v-74.11h-31.37M1254.57 595.523v-71.882h16.37c17.21 0 26.37 8.32 26.37 27.754v14.988c0 19.98-9.16 29.14-26.09 29.14zm-31.37-172.918v199.844h46.91c42.46 0 58.56-20.265 58.56-54.406v-21.367c0-23.035-8.6-39.141-29.97-46.074l41.63-77.997h-34.42l-37.19 74.11h-14.15v-74.11h-31.37M1450.77 422.605h-98.82v199.844h98.82v-26.926h-67.45v-56.621h51.9V511.98h-51.9v-62.453h67.45v-26.922M1470.44 422.605v199.844h98.82v-26.926h-67.45v-64.949h51.91v-26.926h-51.91v-81.043h-31.37M1699.4 622.449V469.793c0-31.367-22.48-49.961-58-49.961-35.53 0-58.01 18.594-58.01 49.961v152.656h31.64V476.734c0-19.988 9.16-28.035 26.37-28.035 17.2 0 26.64 8.047 26.64 28.035v145.715h31.36M1822.33 422.605l-6.11 11.102c-8.6-9.16-22.2-13.875-38.86-13.875-32.47 0-52.73 15.82-52.73 43.301v118.789c0 27.48 22.48 43.301 58.01 43.301 34.14 0 56.06-15.821 56.06-43.301v-31.641h-29.97v25.821c0 14.98-9.99 21.921-26.09 21.921-18.32 0-26.64-6.941-26.64-21.921V469.793c0-15.82 8.32-22.766 26.64-22.766 16.1 0 26.09 6.946 26.09 22.766v28.582h-26.09v26.926h56.06V422.605h-16.37M1962.19 422.605h-98.81v199.844h98.81v-26.926h-67.44v-56.621h51.9V511.98h-51.9v-62.453h67.44v-26.922M2080.67 422.605h-98.8v199.844h98.8v-26.926h-67.44v-56.621h51.91V511.98h-51.91v-62.453h67.44v-26.922M2090.36 393.191l7.77 68.555h36.08l-19.98-68.555h-23.87M2252.43 487.555l-38.57 81.601 1.1-20.261v-126.29h-29.42v199.844h33.31l44.41-95.48 44.69 95.48h33.3V422.605h-29.7v126.29l1.12 19.707-38.59-81.047h-21.65M2369.52 422.605v199.844h31.37V422.605h-31.37M2524.94 422.605l-6.1 11.102c-8.61-9.16-22.21-13.875-38.86-13.875-32.48 0-52.73 15.82-52.73 43.301v118.789c0 27.48 22.48 43.301 58 43.301 34.14 0 56.07-15.821 56.07-43.301v-31.641h-29.98v25.821c0 14.98-9.99 21.921-26.09 21.921-18.32 0-26.65-6.941-26.65-21.921V469.793c0-15.82 8.33-22.766 26.65-22.766 16.1 0 26.09 6.946 26.09 22.766v28.582h-26.09v26.926h56.07V422.605h-16.38M2597.35 595.523v-71.882h16.38c17.21 0 26.37 8.32 26.37 27.754v14.988c0 19.98-9.16 29.14-26.1 29.14zm-31.36-172.918v199.844h46.9c42.47 0 58.57-20.265 58.57-54.406v-21.367c0-23.035-8.61-39.141-29.98-46.074l41.64-77.997h-34.42l-37.2 74.11h-14.15v-74.11h-31.36" transform="matrix(.13333 0 0 -.13333 0 178.72)"/>
  <path d="M2726.11 494.5h41.08l-20.27 91.59zm-47.46-71.895 49.68 199.844h36.91l49.41-199.844h-31.36l-9.72 43.301h-53.84l-9.72-43.301h-31.36M2826.83 422.605v199.844h25.53l62.18-124.074 6.1-14.98-.55 15.539v123.515h28.31V422.605h-25.81l-61.62 123.516-6.66 16.934.55-15.821V422.605h-28.03M3003.32 422.605v172.918h-40.8v26.926h112.69v-26.926h-40.52V422.605h-31.37M3064.65 393.191l7.77 68.555h36.08l-19.98-68.555h-23.87M178.711 242h41.078l-20.262 91.59zm-47.461-71.898 49.684 199.847h36.914l49.402-199.847h-31.359l-9.719 43.308h-53.848l-9.711-43.308H131.25M279.43 170.102v199.847h25.535l62.176-124.07 6.105-14.981-.555 15.532v123.519H401V170.102h-25.809L313.57 293.621l-6.66 16.93.555-15.821V170.102H279.43M460.648 342.75V197.309h19.989c21.644 0 34.691 11.652 34.691 38.582v68.281c0 26.918-12.215 38.578-35.527 38.578zm-31.367 27.199h50.52c47.179 0 65.222-22.765 65.222-64.398V234.5c0-43.859-18.312-64.398-64.386-64.398h-51.356v199.847M641.852 342.75V197.309h19.984c21.644 0 34.691 11.652 34.691 38.582v68.281c0 26.918-12.211 38.578-35.527 38.578zm-31.368 27.199H661c47.184 0 65.227-22.765 65.227-64.398V234.5c0-43.859-18.317-64.398-64.391-64.398h-51.352v199.847M751.453 170.102v199.847h31.367V170.102h-31.367M914.645 219.512c0-37.192-18.043-52.18-50.512-52.18h-11.942c-30.527 0-47.461 11.379-47.461 40.527v24.7h30.254v-15.821c0-18.879 5.832-22.758 18.321-22.758h9.715c12.488 0 20.82 2.489 20.82 24.141v14.438c0 11.66-4.445 19.703-18.879 23.031l-20.535 5c-25.539 6.109-37.196 17.769-37.196 52.461v11.379c0 31.914 17.208 48.293 48.02 48.293h4.715c30.531 0 49.406-14.707 49.406-40.524v-21.09h-30.254v13.879c0 15.262-6.383 21.094-18.594 21.094h-4.722c-12.488 0-17.766-5.273-17.766-23.883v-7.758c0-17.222 2.781-21.089 16.379-24.711l18.598-5c32.472-8.32 41.633-21.359 41.633-53.558v-11.66M966.801 343.023v-71.882h19.707c17.482 0 26.372 8.32 26.372 27.75v14.988c0 19.98-8.89 29.144-25.817 29.144zm-31.367-172.921v199.847h50.519c42.187 0 58.287-20.265 58.287-54.41V294.18c0-31.371-16.1-49.961-58.287-49.961h-19.152v-74.117h-31.367M1160.5 170.102h-97.98v199.847h31.37V197.031h66.61v-26.929" transform="matrix(.13333 0 0 -.13333 0 178.72)"/>
  <path d="M1205.44 242h41.08l-20.27 91.59zm-47.46-71.898 49.68 199.847h36.92l49.4-199.847h-31.36l-9.72 43.308h-53.85l-9.71-43.308h-31.36M1359.18 194.531c14.99 0 24.7 6.391 24.7 21.93v25.809h29.7v-31.641c0-27.481-21.92-43.297-56.34-43.297-33.31 0-54.4 15.816-54.4 43.297v118.793c0 27.48 21.64 43.301 56.34 43.301 33.31 0 54.4-15.821 54.4-43.301v-31.641h-29.7v25.821c0 14.98-9.71 21.921-24.7 21.921-16.93 0-24.98-6.941-24.98-21.921V216.461c0-15.539 8.05-21.93 24.98-21.93M1536.23 170.102h-98.81v199.847h98.81v-26.926h-67.45v-56.625h51.91V259.48h-51.91v-62.449h67.45v-26.929M1622.79 235.059l-38.57 81.601 1.1-20.269V170.102h-29.42v199.847h33.31l44.41-95.48 44.69 95.48h33.3V170.102h-29.7v126.289l1.12 19.711-38.59-81.043h-21.65M1838.7 170.102h-98.82v199.847h98.82v-26.926h-67.45v-56.625h51.9V259.48h-51.9v-62.449h67.45v-26.929M1858.37 170.102v199.847h25.54l62.17-124.07 6.11-14.981-.56 15.532v123.519h28.31V170.102h-25.81l-61.62 123.519-6.66 16.93.56-15.821V170.102h-28.04M2034.86 170.102v172.921h-40.8v26.926h112.7v-26.926h-40.53V170.102h-31.37M2258 219.512c0-37.192-18.05-52.18-50.52-52.18h-11.93c-30.53 0-47.46 11.379-47.46 40.527v24.7h30.25v-15.821c0-18.879 5.83-22.758 18.32-22.758h9.71c12.49 0 20.82 2.489 20.82 24.141v14.438c0 11.66-4.45 19.703-18.88 23.031l-20.54 5c-25.53 6.109-37.18 17.769-37.18 52.461v11.379c0 31.914 17.2 48.293 48.01 48.293h4.72c30.53 0 49.4-14.707 49.4-40.524v-21.09h-30.25v13.879c0 15.262-6.39 21.094-18.59 21.094h-4.73c-12.49 0-17.76-5.273-17.76-23.883v-7.758c0-17.222 2.78-21.089 16.37-24.711l18.61-5c32.47-8.32 41.63-21.359 41.63-53.558v-11.66M2302.66 170.102v172.921h-40.8v26.926h112.68v-26.926h-40.52V170.102h-31.36M2503.58 369.949v-152.66c0-31.359-22.48-49.957-58-49.957-35.53 0-58.01 18.598-58.01 49.957v152.66h31.64V224.238c0-19.988 9.16-28.039 26.37-28.039 17.2 0 26.64 8.051 26.64 28.039v145.711h31.36M2562.12 342.75V197.309h19.98c21.65 0 34.7 11.652 34.7 38.582v68.281c0 26.918-12.22 38.578-35.53 38.578zm-31.37 27.199h50.52c47.18 0 65.22-22.765 65.22-64.398V234.5c0-43.859-18.32-64.398-64.39-64.398h-51.35v199.847M2671.72 170.102v199.847h31.37V170.102h-31.37M2830.2 170.102h-98.82v199.847h98.82v-26.926h-67.46v-56.625h51.91V259.48h-51.91v-62.449h67.46v-26.929M2953.4 219.512c0-37.192-18.05-52.18-50.52-52.18h-11.93c-30.53 0-47.46 11.379-47.46 40.527v24.7h30.25v-15.821c0-18.879 5.83-22.758 18.32-22.758h9.71c12.49 0 20.82 2.489 20.82 24.141v14.438c0 11.66-4.45 19.703-18.88 23.031l-20.54 5c-25.53 6.109-37.18 17.769-37.18 52.461v11.379c0 31.914 17.2 48.293 48.01 48.293h4.72c30.53 0 49.41-14.707 49.41-40.524v-21.09h-30.26v13.879c0 15.262-6.39 21.094-18.59 21.094h-4.73c-12.49 0-17.76-5.273-17.76-23.883v-7.758c0-17.222 2.78-21.089 16.37-24.711l18.61-5c32.47-8.32 41.63-21.359 41.63-53.558v-11.66M1606.28 1340.44c-59.63 0-114.3-32.56-142.65-85l-144.45-266.979-166.2 310.709h70.59l94.01-174.72 97.94 174.72h46.17l7.67 2.15a184.459 184.459 0 0 0 45.96 36.97l5.01 2.15h-129l-72.98-130.19-70.01 130.19h-164.33l234.97-439.1 180.83 334.14c1.33 2.45 2.71 4.84 4.22 7.16 16.06 25.45 40.94 43.95 70.04 52.07a122.8 122.8 0 0 0 24.25 4.14c2.75.2 5.54.32 8.33.32h333.54l-31.72-59.19h-155.98l-154.87-290.804h-71.63l155.96 289.674H1527.6l-1.6-2.79c-5.66-9.07-12.77-21.87-17-29.62l-5.11-8.91h108.89l-155.99-289.655h165.65l154.81 290.825h155.93l76.03 141.74h-402.93M525.941 676.82H474.02v115.028h12.781V687.684h39.14V676.82M540.816 676.82v115.028h12.782V676.82h-12.782M590.512 733.371v-46.168h15.5c11.504 0 18.847 6.387 18.847 19.649v8.945c0 11.984-7.343 17.574-18.847 17.574zm0 47.93v-37.86h13.097c10.704 0 16.934 5.11 16.934 16.293v4.313c0 11.98-6.066 17.254-16.934 17.254zM577.73 676.82v115.028h25.879c18.055 0 29.559-7.989 29.559-26.2v-6.394c0-10.063-4.793-16.293-13.105-19.492 11.503-3.032 17.414-10.539 17.414-23.641v-10.547c0-19.648-12.297-28.754-31.465-28.754H577.73M710.043 676.82h-52.879v115.028h52.879V780.82h-40.098v-38.976h30.676v-11.028h-30.676v-43.132h40.098V676.82M741.059 780.82v-48.086h10.703c13.261 0 19.492 5.75 19.492 19.653v7.508c0 14.535-6.231 20.925-19.012 20.925zm-12.782-104v115.028h23.328c23.321 0 32.266-11.664 32.266-31.313v-9.43c0-14.218-5.43-23.964-18.535-27.636l24.766-46.649h-14.051l-23.176 45.051h-11.816V676.82h-12.782M817.926 715.48h29.07l-14.375 61.188zm-21.731-38.66 29.075 115.028h14.382l29.075-115.028h-12.618l-6.554 27.317h-34.344l-6.398-27.317h-12.618M934.887 676.82h-51.922v115.028h12.781V687.684h39.141V676.82M985.883 715.48h29.077l-14.38 61.188zm-21.727-38.66 29.071 115.028h14.383l29.07-115.028h-12.61l-6.56 27.317h-34.342l-6.395-27.317h-12.617M1064.66 780.82v-48.086h10.71c13.26 0 19.49 5.75 19.49 19.653v7.508c0 14.535-6.23 20.925-19.02 20.925zm-12.78-104v115.028h23.33c23.32 0 32.27-11.664 32.27-31.313v-9.43c0-14.218-5.43-23.964-18.54-27.636l24.77-46.649h-14.06l-23.17 45.051h-11.82V676.82h-12.78M1141.22 676.82v104h-25.09v11.028h62.78V780.82h-24.92v-104h-12.77M1249.23 703.02c0-19.493-9.74-27.797-27.48-27.797h-7.51c-16.45 0-25.56 6.547-25.56 23.324v13.258h12.15v-10.383c0-12.305 4.47-15.496 13.89-15.496h6.39c9.59 0 15.66 1.758 15.66 16.769v9.11c0 8.789-3.03 14.703-13.26 17.254l-13.74 3.355c-13.1 3.035-19.49 8.629-19.49 27.156v7.512c0 17.258 9.11 26.363 25.88 26.363h3.19c16.46 0 26.68-8.468 26.68-23.328v-12.621h-11.97v10.227c0 10.863-5.92 15.019-14.71 15.019h-2.87c-9.42 0-13.9-3.996-13.9-16.617v-5.75c0-11.668 2.07-14.223 11.51-16.777l12.94-3.196c16.76-4.472 22.2-12.461 22.2-28.754v-8.628M1309.01 715.48h29.07l-14.37 61.188zm-21.73-38.66 29.07 115.028h14.39l29.07-115.028h-12.62l-6.55 27.317h-34.35l-6.39-27.317h-12.62M1375.01 676.82v115.028h10.23l39.78-80.84 3.68-9.43-.33 8.949v81.321h11.66V676.82h-10.22l-39.78 80.996-3.83 9.747.47-8.629V676.82h-11.66M1476.97 780.82v-92.976h12.78c15.18 0 23.96 7.668 23.96 25.879v41.215c0 18.058-7.67 25.882-24.93 25.882zm-12.79 11.028h24.6c26.68 0 37.07-12.465 37.07-36.586v-41.856c0-24.445-10.22-36.586-36.1-36.586h-25.57v115.028M1579.08 676.82v115.028h12.79v-50.004h36.26v50.004h12.62V676.82h-12.62v53.996h-36.26V676.82h-12.79M1727.36 791.848v-89.785c0-16.938-12.15-26.84-31.47-26.84-19.34 0-31.48 9.902-31.48 26.84v89.785h12.62v-86.274c0-13.418 6.88-18.847 18.86-18.847 12.14 0 18.85 5.429 18.85 18.847v86.274h12.62M1787.78 716.598l-25.24 53.043.48-8.629V676.82h-11.98v115.028h13.26l27.96-59.274 27.95 59.274h13.27V676.82h-11.99v84.032l.32 8.304-25.25-52.558h-8.78M1870.41 715.48h29.07l-14.37 61.188zm-21.73-38.66 29.07 115.028h14.39l29.07-115.028h-12.62l-6.55 27.317h-34.34l-6.4-27.317h-12.62M1936.41 676.82v115.028h10.22l39.79-80.84 3.67-9.43-.32 8.949v81.321h11.66V676.82h-10.23l-39.77 80.996-3.84 9.747.48-8.629V676.82h-11.66M2113.13 703.02c0-19.493-9.74-27.797-27.48-27.797h-7.51c-16.45 0-25.56 6.547-25.56 23.324v13.258h12.15v-10.383c0-12.305 4.47-15.496 13.89-15.496h6.39c9.59 0 15.66 1.758 15.66 16.769v9.11c0 8.789-3.03 14.703-13.26 17.254l-13.74 3.355c-13.1 3.035-19.49 8.629-19.49 27.156v7.512c0 17.258 9.11 26.363 25.88 26.363h3.19c16.46 0 26.68-8.468 26.68-23.328v-12.621h-11.97v10.227c0 10.863-5.92 15.019-14.71 15.019h-2.87c-9.42 0-13.9-3.996-13.9-16.617v-5.75c0-11.668 2.07-14.223 11.51-16.777l12.94-3.196c16.77-4.472 22.2-12.461 22.2-28.754v-8.628M2163.01 686.242c11.01 0 18.37 4.633 18.37 16.301v15.812h11.98v-18.21c0-15.817-12.14-24.922-31-24.922-18.69 0-30.5 9.105-30.5 24.922v68.378c0 15.817 12.13 24.922 31.15 24.922 18.52 0 30.35-9.105 30.35-24.922v-18.214h-11.98v15.816c0 10.863-7.36 16.293-18.37 16.293-12.63 0-18.38-5.43-18.38-16.293v-63.582c0-11.668 5.75-16.301 18.38-16.301M2215.26 676.82v115.028h12.79V676.82h-12.79M2305.06 676.82h-52.88v115.028h52.88V780.82h-40.1v-38.976h30.67v-11.028h-30.67v-43.132h40.1V676.82M2323.29 676.82v115.028h10.23l39.78-80.84 3.67-9.43-.32 8.949v81.321h11.66V676.82h-10.22l-39.78 80.996-3.84 9.747.48-8.629V676.82h-11.66M2442.5 686.242c11.02 0 18.37 4.633 18.37 16.301v15.812h11.98v-18.21c0-15.817-12.14-24.922-30.99-24.922-18.7 0-30.51 9.105-30.51 24.922v68.378c0 15.817 12.14 24.922 31.15 24.922 18.53 0 30.35-9.105 30.35-24.922v-18.214h-11.98v15.816c0 10.863-7.35 16.293-18.37 16.293-12.63 0-18.38-5.43-18.38-16.293v-63.582c0-11.668 5.75-16.301 18.38-16.301M2547.64 676.82h-52.88v115.028h52.88V780.82h-40.1v-38.976h30.67v-11.028h-30.67v-43.132h40.1V676.82M2622.6 703.02c0-19.493-9.75-27.797-27.48-27.797h-7.51c-16.46 0-25.57 6.547-25.57 23.324v13.258h12.15v-10.383c0-12.305 4.47-15.496 13.9-15.496h6.38c9.59 0 15.67 1.758 15.67 16.769v9.11c0 8.789-3.04 14.703-13.26 17.254l-13.75 3.355c-13.1 3.035-19.49 8.629-19.49 27.156v7.512c0 17.258 9.11 26.363 25.88 26.363h3.19c16.46 0 26.68-8.468 26.68-23.328v-12.621h-11.97v10.227c0 10.863-5.92 15.019-14.71 15.019h-2.87c-9.42 0-13.89-3.996-13.89-16.617v-5.75c0-11.668 2.07-14.223 11.5-16.777l12.94-3.196c16.77-4.472 22.21-12.461 22.21-28.754v-8.628" transform="matrix(.13333 0 0 -.13333 0 178.72)"/>
</svg>